<?xml version="1.0" encoding="UTF-8" standalone="no"?>
<svg width="128px" height="40px" viewBox="0 0 128 40" version="1.1" xmlns="http://www.w3.org/2000/svg" xmlns:xlink="http://www.w3.org/1999/xlink">
    <!-- Generator: Sketch 47.1 (45422) - http://www.bohemiancoding.com/sketch -->
    <title>airbnb_logo</title>
    <desc>Created with Sketch.</desc>
    <defs></defs>
    <g id="Page-1" stroke="none" stroke-width="1" fill="none" fill-rule="evenodd" fill-opacity="0.4">
        <g id="Desktop-HD-Copy" transform="translate(-155.000000, -884.000000)" fill-rule="nonzero" fill="#AFAFAF">
            <g id="airbnb_logo" transform="translate(155.000000, 884.000000)">
                <path d="M67.1881188,10.3465347 C67.1881188,11.7738614 66.0380198,12.9231683 64.6106931,12.9231683 C63.1833663,12.9231683 62.0340594,11.7738614 62.0340594,10.3465347 C62.0340594,8.91920792 63.1441584,7.76990099 64.6106931,7.76990099 C66.0784158,7.80950495 67.1881188,8.95920792 67.1881188,10.3465347 L67.1881188,10.3465347 Z M56.5631683,15.540198 L56.5631683,16.1746535 C56.5631683,16.1746535 55.3346535,14.5881188 52.7180198,14.5881188 C48.3972277,14.5881188 45.0269307,17.8788119 45.0269307,22.4376238 C45.0269307,26.9572277 48.3576238,30.2871287 52.7180198,30.2871287 C55.3742574,30.2871287 56.5631683,28.6617822 56.5631683,28.6617822 L56.5631683,29.3354455 C56.5631683,29.6526733 56.8015842,29.889901 57.1184158,29.889901 L60.3291089,29.889901 L60.3291089,14.9833663 L57.1184158,14.9833663 C56.8015842,14.9845545 56.5631683,15.2625743 56.5631683,15.540198 L56.5631683,15.540198 Z M56.5631683,25.0938614 C55.9691089,25.9663366 54.7794059,26.719604 53.3524752,26.719604 C50.8154455,26.719604 48.8724752,25.1338614 48.8724752,22.4376238 C48.8724752,19.7417822 50.8154455,18.1560396 53.3524752,18.1560396 C54.740198,18.1560396 56.0087129,18.9489109 56.5631683,19.7813861 L56.5631683,25.0938614 Z M62.7081188,14.9845545 L66.5136634,14.9845545 L66.5136634,29.8910891 L62.7081188,29.8910891 L62.7081188,14.9845545 L62.7081188,14.9845545 Z M119.557624,14.5877228 C116.94099,14.5877228 115.711683,16.1742574 115.711683,16.1742574 L115.711683,7.80950495 L111.906139,7.80950495 L111.906139,29.8910891 L115.117624,29.8910891 C115.434851,29.8910891 115.672079,29.6134653 115.672079,29.3358416 L115.672079,28.6621782 C115.672079,28.6621782 116.901386,30.2875248 119.517228,30.2875248 C123.838812,30.2875248 127.208317,26.9584158 127.208317,22.4388119 C127.208317,17.9192079 123.838812,14.5877228 119.557624,14.5877228 L119.557624,14.5877228 Z M118.923168,26.679604 C117.455842,26.679604 116.306535,25.9271287 115.711683,25.0542574 L115.711683,19.7417822 C116.306535,18.9489109 117.57505,18.1164356 118.923168,18.1164356 C121.460198,18.1164356 123.402772,19.7021782 123.402772,22.3980198 C123.402772,25.0938614 121.460594,26.679604 118.923168,26.679604 Z M109.924356,21.0506931 L109.924356,29.9306931 L106.11802,29.9306931 L106.11802,21.4863366 C106.11802,19.0289109 105.325149,18.0372277 103.185743,18.0372277 C102.036436,18.0372277 100.846733,18.6320792 100.092277,19.5045545 L100.092277,29.8914851 L96.2875248,29.8914851 L96.2875248,14.9849505 L99.2994059,14.9849505 C99.6166337,14.9849505 99.8546535,15.2625743 99.8546535,15.540198 L99.8546535,16.1746535 C100.964752,15.0245545 102.431287,14.5881188 103.897822,14.5881188 C105.563168,14.5881188 106.950891,15.0645545 108.06099,16.0158416 C109.408317,17.1259406 109.924356,18.5528713 109.924356,21.0506931 L109.924356,21.0506931 Z M87.0491089,14.5877228 C84.4332673,14.5877228 83.2039604,16.1742574 83.2039604,16.1742574 L83.2039604,7.80950495 L79.3984158,7.80950495 L79.3984158,29.8910891 L82.6091089,29.8910891 C82.9263366,29.8910891 83.1643564,29.6134653 83.1643564,29.3358416 L83.1643564,28.6621782 C83.1643564,28.6621782 84.3936634,30.2875248 87.009505,30.2875248 C91.3310891,30.2875248 94.7005941,26.9584158 94.7005941,22.4388119 C94.740198,17.9188119 91.3706931,14.5877228 87.0491089,14.5877228 L87.0491089,14.5877228 Z M86.4146535,26.679604 C84.9481188,26.679604 83.7988119,25.9271287 83.2039604,25.0542574 L83.2039604,19.7417822 C83.7988119,18.9489109 85.0673267,18.1164356 86.4146535,18.1164356 C88.9524752,18.1164356 90.8946535,19.7021782 90.8946535,22.3980198 C90.8946535,25.0938614 88.9524752,26.679604 86.4146535,26.679604 Z M76.1077228,14.5877228 C77.2570297,14.5877228 77.8518812,14.7865347 77.8518812,14.7865347 L77.8518812,18.3144554 C77.8518812,18.3144554 74.680396,17.2439604 72.6986139,19.5041584 L72.6986139,29.930297 L68.8922772,29.930297 L68.8922772,14.9845545 L72.1037624,14.9845545 C72.4209901,14.9845545 72.6582178,15.2621782 72.6582178,15.539802 L72.6582178,16.1742574 C73.3726733,15.3413861 74.9188119,14.5877228 76.1077228,14.5877228 L76.1077228,14.5877228 Z M36.5833663,28.5429703 C36.3853465,28.0673267 36.1869307,27.5520792 35.9889109,27.1156436 C35.6712871,26.4023762 35.3540594,25.7279208 35.0772277,25.0938614 L35.0376238,25.0542574 C32.3017822,19.1073267 29.3687129,13.0819802 26.2760396,7.13584158 L26.1572277,6.89742574 C25.8319488,6.28058218 25.5149566,5.65940422 25.2063366,5.03405941 C24.809505,4.32 24.4134653,3.56752475 23.7790099,2.85346535 C22.510495,1.26772277 20.6867327,0.395247525 18.7445545,0.395247525 C16.7619802,0.395247525 14.9782178,1.26772277 13.670495,2.77386139 C13.0756436,3.48712871 12.6392079,4.24039604 12.2431683,4.95445545 C11.9337669,5.57940771 11.6167797,6.20057572 11.2922772,6.81782178 L11.1730693,7.05623762 C8.12039604,13.0023762 5.14732673,19.0281188 2.41188119,24.9746535 L2.37188119,25.0534653 C2.09465347,25.6887129 1.7770297,26.3623762 1.45980198,27.0752475 C1.26178218,27.5116832 1.06376238,27.9873267 0.865742574,28.5025743 C0.35009901,29.9691089 0.191287129,31.3568317 0.39009901,32.7845545 C0.826138614,35.7580198 2.80792079,38.2546535 5.54376238,39.3655446 C6.57465347,39.8019802 7.64514851,40 8.75485149,40 C9.07207921,40 9.46811881,39.960396 9.78574257,39.920396 C11.0942574,39.7619802 12.4419802,39.3263366 13.750495,38.5730693 C15.3758416,37.6609901 16.9219802,36.3532673 18.6661386,34.450297 C20.410297,36.3532673 21.9960396,37.6609901 23.5817822,38.5730693 C24.8906931,39.3263366 26.2380198,39.7619802 27.5461386,39.920396 C27.8633663,39.9607921 28.260198,40 28.5774257,40 C29.6875248,40 30.7972277,39.8019802 31.7881188,39.3655446 C34.5635644,38.2546535 36.5057426,35.7184158 36.9421782,32.7845545 C37.2570297,31.3972277 37.0986139,30.010297 36.5833663,28.5429703 L36.5833663,28.5429703 Z M18.7045545,30.6043564 C16.5635644,27.9085149 15.1758416,25.3714851 14.7005941,23.2312871 C14.5025743,22.3192079 14.4625743,21.5263366 14.5817822,20.8126733 C14.6605941,20.1782178 14.8990099,19.6229703 15.2162376,19.1473267 C15.969505,18.0776238 17.2380198,17.4031683 18.7049505,17.4031683 C20.1722772,17.4031683 21.480396,18.0376238 22.1940594,19.1473267 C22.5112871,19.6229703 22.7489109,20.1786139 22.8289109,20.8126733 C22.9473267,21.5267327 22.9077228,22.3588119 22.709703,23.2312871 C22.2324752,25.3318812 20.8447525,27.8693069 18.7045545,30.6043564 Z M34.5215842,32.4677228 C34.2443564,34.5291089 32.8566337,36.3136634 30.9144554,37.1065347 C29.9631683,37.5025743 28.9318812,37.6217822 27.9017822,37.5025743 C26.9108911,37.3833663 25.9192079,37.0661386 24.8891089,36.4720792 C23.4617822,35.6784158 22.0348515,34.450297 20.369505,32.6261386 C22.9857426,29.4154455 24.5714851,26.4811881 25.1663366,23.8653465 C25.4439604,22.6360396 25.4839604,21.5263366 25.3643564,20.4950495 C25.2063366,19.5041584 24.8491089,18.5920792 24.2942574,17.7992079 C23.0645545,16.0146535 21.0027723,14.9845545 18.7041584,14.9845545 C16.4055446,14.9845545 14.3437624,16.0550495 13.1148515,17.7992079 C12.56,18.5920792 12.2027723,19.5041584 12.0443564,20.4950495 C11.8859406,21.5263366 11.9251485,22.6756436 12.2423762,23.8653465 C12.8368317,26.4811881 14.4621782,29.4546535 17.0388119,32.6657426 C15.4134653,34.489505 13.9465347,35.7188119 12.5192079,36.5116832 C11.4883168,37.1065347 10.4978218,37.4237624 9.50693069,37.5421782 C8.43683168,37.6613861 7.40554455,37.5025743 6.49386139,37.1461386 C4.55168317,36.3532673 3.1639604,34.5687129 2.88673267,32.5073267 C2.76792079,31.5164356 2.84673267,30.5255446 3.24356436,29.4154455 C3.3619802,29.0186139 3.56079208,28.6225743 3.75881188,28.1469307 C4.03643564,27.5124752 4.35287129,26.8380198 4.67049505,26.1643564 L4.71049505,26.0855446 C7.44554455,20.1782178 10.3790099,14.1524752 13.4316832,8.28554455 L13.550495,8.04712871 C13.8681188,7.45306931 14.1853465,6.81861386 14.5021782,6.22376238 C14.8194059,5.58930693 15.1758416,4.99445545 15.6122772,4.47881188 C16.4447525,3.52831683 17.5544554,3.01227723 18.7837624,3.01227723 C20.0130693,3.01227723 21.1227723,3.52831683 21.9552475,4.47881188 C22.3916832,4.99564356 22.7481188,5.59049505 23.0653465,6.22376238 C23.3829703,6.81861386 23.700198,7.45306931 24.0166337,8.04712871 L24.1358416,8.28554455 C27.1419652,14.1768521 30.0364755,20.1244488 32.8178218,26.1251485 L32.8178218,26.1647525 C33.1354455,26.8 33.4126733,27.5128713 33.729901,28.1481188 C33.9279208,28.6229703 34.1263366,29.0190099 34.2451485,29.4158416 C34.5615842,30.4455446 34.680396,31.4372277 34.5215842,32.4677228 L34.5215842,32.4677228 Z" id="Shape"></path>
            </g>
        </g>
    </g>
</svg>