<?xml version="1.0" encoding="UTF-8" standalone="no"?>
<svg width="152px" height="30px" viewBox="0 0 152 30" version="1.1" xmlns="http://www.w3.org/2000/svg" xmlns:xlink="http://www.w3.org/1999/xlink">
    <!-- Generator: Sketch 47.1 (45422) - http://www.bohemiancoding.com/sketch -->
    <title>facebook_logo</title>
    <desc>Created with Sketch.</desc>
    <defs></defs>
    <g id="Page-1" stroke="none" stroke-width="1" fill="none" fill-rule="evenodd" fill-opacity="0.4">
        <g id="Desktop-HD-Copy" transform="translate(-1037.000000, -894.000000)" fill-rule="nonzero" fill="#AFAFAF">
            <g id="facebook_logo" transform="translate(1037.000000, 894.000000)">
                <g id="Group">
                    <path d="M77.9362579,14.49 C76.686262,14.49 75.7852,14.8981395 74.871526,15.3139535 L74.871526,24.7227907 C75.7466632,24.805814 76.2483431,24.805814 77.0786374,24.805814 C80.0789076,24.805814 80.4902011,23.4376744 80.4902011,21.5274419 L80.4902011,17.0337209 C80.4902011,15.6230233 80.0200513,14.49 77.9362579,14.49 L77.9362579,14.49 Z M58.0105959,13.9765116 C55.9289045,13.9765116 55.45385,15.1144186 55.45385,16.5237209 L55.45385,17.3155814 L60.5645392,17.3155814 L60.5645392,16.5237209 C60.5645392,15.1144186 60.0894847,13.9765116 58.0105959,13.9765116 Z M19.4106693,23.7697674 C19.4106693,24.8846512 19.9389747,25.4637209 21.10489,25.4637209 C22.3555865,25.4637209 23.096195,25.0576744 24.0091684,24.6404651 L24.0091684,22.4086047 L21.2744522,22.4086047 C19.9796135,22.4086047 19.4106693,22.6486047 19.4106693,23.7697674 Z M97.3189003,14.49 C95.2337055,14.49 94.5113144,15.6230233 94.5113144,17.0337209 L94.5113144,22.1818605 C94.5113144,23.5960465 95.2337055,24.7325581 97.3189003,24.7325581 C99.3984897,24.7325581 100.126486,23.5960465 100.126486,22.1818605 L100.126486,17.0337209 C100.125786,15.6230233 99.3977891,14.49 97.3189003,14.49 L97.3189003,14.49 Z M9.19209363,29.5423256 L3.06262987,29.5423256 L3.06262987,14.7697674 L0,14.7697674 L0,9.67953488 L3.06333054,9.67953488 L3.06333054,6.62232558 C3.06333054,2.46906977 4.79188416,0 9.70498429,0 L13.7954975,0 L13.7954975,5.09162791 L11.2387516,5.09162791 C9.32592166,5.09162791 9.19980101,5.80325581 9.19980101,7.13093023 L9.19209363,9.67883721 L13.8235243,9.67883721 L13.2819062,14.7690698 L9.19209363,14.7690698 L9.19209363,29.5423256 L9.19209363,29.5423256 Z M30.1400335,29.5806977 L25.0314464,29.5806977 L24.8107352,28.294186 C22.4782038,29.5806977 20.3965124,29.7893023 19.0231986,29.7893023 C15.2767145,29.7893023 13.2826068,27.2972093 13.2826068,23.8506977 C13.2826068,19.7846512 15.6095329,18.3334884 19.7722151,18.3334884 L24.0091684,18.3334884 L24.0091684,17.4544186 C24.0091684,15.3788372 23.7702398,14.7697674 20.5646732,14.7697674 L15.3236594,14.7697674 L15.8358494,9.67953488 L21.5645297,9.67953488 C28.5978582,9.67953488 30.1400335,11.8918605 30.1400335,17.4955814 L30.1400335,29.5806977 L30.1400335,29.5806977 Z M47.5117522,15.1430233 C44.3328111,14.6002326 43.4198377,14.4809302 41.8902744,14.4809302 C39.1429462,14.4809302 38.3126519,15.0844186 38.3126519,17.4076744 L38.3126519,21.8023256 C38.3126519,24.1255814 39.1429462,24.7318605 41.8902744,24.7318605 C43.4198377,24.7318605 44.3328111,24.6104651 47.5117522,24.0655814 L47.5117522,29.0309302 C44.7272884,29.6525581 42.913253,29.815814 41.3801864,29.815814 C34.799491,29.815814 32.1838888,26.37 32.1838888,21.392093 L32.1838888,17.8262791 C32.1838888,12.844186 34.799491,9.39209302 41.3801864,9.39209302 C42.913253,9.39209302 44.7272884,9.55604651 47.5117522,10.1804651 L47.5117522,15.1430233 L47.5117522,15.1430233 Z M66.6933023,21.392093 L55.4531494,21.392093 L55.4531494,21.8023256 C55.4531494,24.1255814 56.2841443,24.7318605 59.0307719,24.7318605 C61.499934,24.7318605 63.0070758,24.6104651 66.1804116,24.0655814 L66.1804116,29.0309302 C63.1198837,29.6525581 61.5251581,29.815814 58.5227859,29.815814 C51.9413898,29.815814 49.3243863,26.37 49.3243863,21.392093 L49.3243863,17.3148837 C49.3243863,12.9593023 51.2659437,9.39209302 58.0098953,9.39209302 C64.7538469,9.39209302 66.6933023,12.9181395 66.6933023,17.3148837 L66.6933023,21.392093 L66.6933023,21.392093 Z M86.6182635,21.4862791 C86.6182635,26.2974419 85.2372424,29.8067442 76.871239,29.8067442 C73.8499487,29.8067442 72.0779535,29.5423256 68.7434636,29.0316279 L68.7434636,1.52930233 L74.8708253,0.511395349 L74.8708253,10.1316279 C76.1950922,9.64186047 77.9089317,9.3927907 79.4686238,9.3927907 C85.5966862,9.3927907 86.6175628,12.1283721 86.6175628,16.5244186 L86.6175628,21.4862791 L86.6182635,21.4862791 Z M106.260154,21.5909302 C106.260154,25.7413953 104.539308,29.7669767 97.3392197,29.7669767 C90.1356284,29.7669767 88.3825513,25.7413953 88.3825513,21.5909302 L88.3825513,17.5834884 C88.3825513,13.4309302 90.1356284,9.40465116 97.3392197,9.40465116 C104.539308,9.40465116 106.260154,13.4309302 106.260154,17.5834884 L106.260154,21.5909302 Z M125.888732,21.5909302 C125.888732,25.7413953 124.165783,29.7669767 116.967097,29.7669767 C109.763505,29.7669767 108.010428,25.7413953 108.010428,21.5909302 L108.010428,17.5834884 C108.010428,13.4309302 109.763505,9.40465116 116.967097,9.40465116 C124.165783,9.40465116 125.888732,13.4309302 125.888732,17.5834884 L125.888732,21.5909302 Z M146.032302,29.5423256 L139.390648,29.5423256 L133.773375,20.2053488 L133.773375,29.5423256 L127.643911,29.5423256 L127.643911,1.52860465 L133.773375,0.510697674 L133.773375,18.5448837 L139.390648,9.67953488 L146.032302,9.67953488 L139.900036,19.354186 L146.032302,29.5423256 L146.032302,29.5423256 Z M116.946077,14.49 C114.864385,14.49 114.141994,15.6230233 114.141994,17.0337209 L114.141994,22.1818605 C114.141994,23.5960465 114.864385,24.7325581 116.946077,24.7325581 C119.024965,24.7325581 119.760669,23.5960465 119.760669,22.1818605 L119.760669,17.0337209 C119.760669,15.6230233 119.024965,14.49 116.946077,14.49 Z M149.530749,26.0581395 C150.562836,26.0581395 151.384722,26.8960465 151.384722,27.9425581 C151.384722,29.0051163 150.562136,29.8339535 149.523041,29.8339535 C148.488852,29.8339535 147.65015,29.0051163 147.65015,27.9425581 C147.65015,26.8960465 148.488852,26.0581395 149.523041,26.0581395 L149.530749,26.0581395 L149.530749,26.0581395 Z M149.523041,26.3511628 C148.691346,26.3511628 148.010995,27.0634884 148.010995,27.9425581 C148.010995,28.8376744 148.692047,29.5409302 149.530749,29.5409302 C150.370152,29.5493023 151.040693,28.8376744 151.040693,27.9509302 C151.040693,27.064186 150.370152,26.3511628 149.530749,26.3511628 L149.523041,26.3511628 L149.523041,26.3511628 Z M149.170604,29.0393023 L148.834283,29.0393023 L148.834283,26.9365116 C149.010851,26.912093 149.179012,26.8876744 149.431254,26.8876744 C149.750759,26.8876744 149.959559,26.9546512 150.087782,27.0460465 C150.2118,27.1388372 150.278364,27.2804651 150.278364,27.4806977 C150.278364,27.7583721 150.094788,27.9251163 149.868472,27.9927907 L149.868472,28.0088372 C150.052748,28.0430233 150.178168,28.2090698 150.220909,28.5181395 C150.269956,28.8453488 150.321105,28.9702326 150.354036,29.0386047 L150.001599,29.0386047 C149.951852,28.9702326 149.900703,28.7783721 149.858663,28.5013953 C149.809616,28.234186 149.673686,28.1337209 149.404628,28.1337209 L149.171305,28.1337209 L149.171305,29.0393023 L149.170604,29.0393023 Z M149.170604,27.8755814 L149.414438,27.8755814 C149.690502,27.8755814 149.925226,27.7744186 149.925226,27.514186 C149.925226,27.33 149.792099,27.1465116 149.414438,27.1465116 C149.304432,27.1465116 149.228059,27.1548837 149.170604,27.1625581 L149.170604,27.8755814 Z" id="Shape"></path>
                </g>
            </g>
        </g>
    </g>
</svg>