<?xml version="1.0" encoding="UTF-8" standalone="no"?>
<svg width="157px" height="39px" viewBox="0 0 157 39" version="1.1" xmlns="http://www.w3.org/2000/svg" xmlns:xlink="http://www.w3.org/1999/xlink">
    <!-- Generator: Sketch 47.1 (45422) - http://www.bohemiancoding.com/sketch -->
    <title>square_logo</title>
    <desc>Created with Sketch.</desc>
    <defs></defs>
    <g id="Page-1" stroke="none" stroke-width="1" fill="none" fill-rule="evenodd" fill-opacity="0.4">
        <g id="Desktop-HD-Copy" transform="translate(-446.000000, -884.000000)" fill-rule="nonzero">
            <g id="square_logo" transform="translate(446.000000, 884.000000)">
                <g id="layer3" transform="translate(0.714286, 0.000000)">
                    <g id="g3486">
                        <g id="g3478" transform="translate(50.000000, 6.428571)" fill="#AFAFAF">
                            <path d="M27.9257071,7.1875 C26.3839286,7.2318 24.9137071,7.85642357 23.7069571,8.79464286 C23.2753929,9.10284857 22.7498857,9.61217357 22.4657,10.0735143 C21.8475857,10.9209943 21.3232286,11.8264086 21.0273214,12.8380164 C20.1713314,15.6643064 20.3234071,18.8644336 21.6927357,21.5030164 C22.2259357,22.4414793 22.79705,23.2555714 23.6399929,23.9508929 C24.3236857,24.3766864 25.1181286,24.9373321 25.9654143,25.1575814 C28.2823,25.8929829 30.9669071,25.5150693 32.9033857,24.0178571 C33.3878929,23.7169057 33.8295071,23.1378014 34.22035,22.65625 C34.1920643,22.5297657 34.5912214,22.0111543 34.6221357,22.4151786 C34.6207071,25.2883057 34.6235643,28.187575 34.6221357,31.0714286 C35.4926714,31.0714286 36.3632071,31.0714286 37.2337429,31.0714286 C37.2337429,23.2440479 37.2337429,15.4166664 37.2337429,7.58928571 C36.3632071,7.58928571 35.4926714,7.58928571 34.6221357,7.58928571 C34.6221357,8.63095214 34.6221357,9.67261929 34.6221357,10.7142857 C34.1544429,10.0290986 33.7412357,9.27790786 33.0819571,8.83928571 C31.64045,7.68280357 29.7804,7.04222643 27.9257071,7.1875 Z M28.8408857,9.55357143 C30.0398643,9.5505 31.4001643,9.88887857 32.2560643,10.6473214 C32.9384286,11.2002157 33.4490714,11.7843264 33.8177071,12.5965836 C34.7942,14.6956986 34.8809786,17.1918021 34.11845,19.3719507 C33.77615,20.426315 33.11815,21.3170936 32.2560643,22.0089286 C30.9870214,23.0944221 29.1489357,23.2759143 27.5439143,22.9960686 C26.4813571,22.8137186 25.5795786,22.20579 24.8970929,21.3971993 C23.6262786,20.0018264 23.2637714,17.9828721 23.2870429,16.1340521 C23.3510429,14.5294093 23.6592857,12.8460207 24.6444571,11.5401786 C25.3077786,10.71999 26.1752929,10.0110229 27.2381,9.75985429 C27.7543286,9.593055 28.3001929,9.53826071 28.8408857,9.55357143 L28.8408857,9.55357143 Z" id="path3299"></path>
                            <path d="M8.74123929,0.46875 C6.75428214,0.548300357 4.73118429,1.06930429 3.13856071,2.29910714 C2.81169071,2.51613357 2.45032429,2.907875 2.22417214,3.24834643 C1.25254714,4.475785 0.755582857,6.07106214 0.910612143,7.63826929 C0.966226429,8.77845643 1.38703857,9.88692429 2.15641786,10.7366071 C2.38168429,11.0759964 2.81650571,11.4614021 3.17016286,11.683925 C5.22656071,13.2821236 7.90075286,13.5789686 10.3276679,14.3057143 C11.8431379,14.76712 13.5975764,15.0802857 14.5894536,16.4285714 C15.4294929,17.4543493 15.4058893,18.9960714 14.9465964,20.2008929 C14.5536529,21.1878164 13.6961014,21.8933036 12.7814179,22.3883929 C10.865935,23.2170536 8.64726929,23.1632086 6.66564286,22.6082871 C5.17277214,22.1513671 3.84855071,21.2643236 2.87940429,20.0341243 C2.63146857,19.6299786 2.41097286,19.3696279 2.02310643,19.8366214 C1.43510357,20.2482236 0.8471,20.6598264 0.259096429,21.0714286 C0.731347857,21.81311 1.28902857,22.5250593 1.955525,23.0357143 C3.09564214,23.9076729 4.332105,24.6788664 5.73445714,25.0406586 C8.35837786,25.8224414 11.2709793,25.7410336 13.8082036,24.6875 C14.8323121,24.1526364 15.810425,23.6122479 16.5348229,22.7150043 C17.47183,21.6075064 18.0738729,20.0541571 18.1028293,18.5404564 C18.17954,17.0872214 17.7106664,15.6132479 16.7546321,14.5089286 C16.572325,14.2217007 16.2432793,13.9280114 15.9274807,13.7444579 C15.4497636,13.3202736 14.9094164,13.0542593 14.3239307,12.7374429 C11.7128721,11.4313057 8.73546286,11.1494043 6.06838286,10.0078929 C5.251485,9.60195786 4.43366357,9.03959429 4.00909643,8.21428571 C3.37407857,6.80510571 3.86884786,5.021525 5.11244429,4.12769929 C6.19872929,3.25720071 7.69005857,3.00110857 9.06713214,2.99107143 C11.4583164,2.96663571 13.8828164,4.00939714 15.3260607,5.9375 C16.0403464,5.40178571 16.7546321,4.86607143 17.4689179,4.33035714 C16.8423914,3.45798071 16.0591093,2.78225286 15.2018407,2.20443286 C13.3094257,0.959780714 11.0048186,0.352150643 8.74123929,0.46875 Z" id="path3297"></path>
                            <path d="M41.6414286,18.9732143 C41.6442857,20.5070614 41.9556,22.1007029 42.8914286,23.3482143 C43.3006571,24.0134536 44.1078857,24.542205 44.8252429,24.9338 C46.6996929,25.8011957 48.9500286,25.6686207 50.8061214,24.8183557 C51.6515357,24.3607529 52.4634714,23.7914879 53.0030357,23.0580357 C53.2503929,22.8298314 53.5292,22.1819007 53.6726786,22.1473214 C53.6726786,23.1354164 53.6726786,24.1235121 53.6726786,25.1116071 C54.5432143,25.1116071 55.41375,25.1116071 56.2842857,25.1116071 C56.2842857,19.2708336 56.2842857,13.4300593 56.2842857,7.58928571 C55.41375,7.58928571 54.5432143,7.58928571 53.6726786,7.58928571 C53.6545357,11.1679307 53.7148929,14.7486186 53.6280357,18.3258929 C53.4170214,19.7662857 52.7624929,21.1572771 51.5744643,22.03125 C50.1345214,23.1284436 48.0478214,23.3950686 46.35125,22.7232143 C45.1629929,22.1891843 44.4859571,20.8851771 44.4011714,19.6043043 C44.1967286,17.3636843 44.3411,15.1085264 44.2976786,12.8616071 C44.2976786,11.1041664 44.2976786,9.34672643 44.2976786,7.58928571 C43.4122643,7.58928571 42.5268429,7.58928571 41.6414286,7.58928571 C41.6414286,11.3839286 41.6414286,15.1785714 41.6414286,18.9732143 Z" id="path3301"></path>
                            <path d="M67.0089286,7.1875 C64.7421071,7.26110286 62.4961429,7.99816214 60.6473214,9.30803571 C61.0267857,9.94791643 61.40625,10.5877979 61.7857143,11.2276786 C63.3247714,10.0465314 65.3049929,9.56351357 67.21875,9.48660714 C68.6126571,9.4675 70.2541071,9.73409214 71.0556429,10.9707136 C71.5133357,11.8098136 71.4088857,13.0141479 70.625,13.6160714 C69.9683929,14.2465457 68.8533143,14.5058321 67.9017857,14.6875 C66.0962714,15.0192379 64.2034143,15.0904757 62.5092286,15.85476 C61.7473857,16.2113393 61.0406571,16.7357057 60.6026786,17.4107143 C59.6664357,18.5713764 59.6007929,20.1826614 59.8784,21.589485 C60.03725,22.3834186 60.4441214,23.0760243 60.9375,23.7053571 C61.1964929,24.0904971 61.71015,24.3481421 62.1428571,24.6651786 C63.7755286,25.5976629 65.7792929,25.6734721 67.59395,25.322495 C68.66335,25.0789014 69.6501929,24.5303186 70.4192714,23.8336621 C70.8225429,23.5727379 70.9007429,23.1358193 71.25,22.8794643 C71.5847643,22.9704529 71.3242643,23.5079471 71.40625,23.7723214 C71.40625,24.21875 71.40625,24.6651786 71.40625,25.1116071 C72.2470214,25.1116071 73.0878,25.1116071 73.9285714,25.1116071 C73.9098571,20.5657064 73.9717857,16.0177714 73.8839286,11.4732143 C73.6798643,10.2262493 73.0167929,8.93713714 71.92775,8.33006929 C70.502,7.39576 68.6939571,7.09205786 67.0089286,7.1875 L67.0089286,7.1875 Z M71.3169643,15.4464286 C71.2443357,17.2755121 71.6132571,19.2512936 70.6991714,20.9313686 C69.9469786,22.2954464 68.4539714,23.1009186 66.9154286,23.2202179 C65.5514929,23.3337321 63.9607286,23.1624107 63.0357143,22.0535714 C62.3778786,21.2493943 62.2516857,20.0280364 62.5711714,19.0408229 C62.8164071,18.1843986 63.5829929,17.6545736 64.3974857,17.3863043 C66.3205714,16.7259129 68.4152643,16.7214786 70.3125,15.9821429 C70.6883929,15.773495 71.0339214,15.5763264 71.3169643,15.2901786 C71.3169643,15.3422643 71.3169643,15.394345 71.3169643,15.4464286 L71.3169643,15.4464286 Z" id="path3303"></path>
                            <path d="M85.9701857,7.25446429 C84.5764357,7.36314571 83.2131286,7.99931429 82.2466,8.91103643 C81.8231071,9.37782214 81.4269214,9.96273357 81.0594714,10.5357143 C81.0594714,9.55357143 81.0594714,8.57142857 81.0594714,7.58928571 C80.1889357,7.58928571 79.3184,7.58928571 78.4478643,7.58928571 C78.4478643,13.4300593 78.4478643,19.2708336 78.4478643,25.1116071 C79.3184,25.1116071 80.1889357,25.1116071 81.0594714,25.1116071 C81.0836143,21.6956364 81.0048286,18.2757243 81.1141857,14.862325 C81.3167571,13.2093779 82.0078214,11.526705 83.4142714,10.5581007 C84.6686857,9.61409714 86.4657714,9.54175143 87.9121214,10.1116071 C88.2223214,9.95332143 88.0974357,9.41762429 88.2622857,9.11459857 C88.3762214,8.68056571 88.49015,8.24653286 88.6040857,7.8125 C87.8146929,7.35612286 86.8715643,7.20071 85.9701571,7.25446429 L85.9701857,7.25446429 Z" id="path3305"></path>
                            <path d="M97.3867929,7.1875 C95.8594429,7.21367857 94.3876071,7.75766929 93.1234,8.59375 C92.8692643,8.78712143 92.5662929,9.00987286 92.2916429,9.24693643 C91.6381357,9.879665 91.1447071,10.6584679 90.6680429,11.4732143 C89.3765357,14.0214207 89.2304786,17.0807143 90.0435786,19.800705 C90.3984143,21.0473057 91.1515714,22.2039614 91.9572643,23.1312807 C92.2863286,23.468915 92.6466357,23.7484414 92.96715,23.9732143 C94.29825,24.9338621 95.9156929,25.4516393 97.5561714,25.5017721 C99.7389143,25.6233107 102.024107,25.1079736 103.727636,23.6853307 C104.263029,23.3230129 104.703721,22.8926164 105.132329,22.3660714 C104.544529,21.8303571 103.956736,21.2946429 103.368936,20.7589286 C102.462764,21.92231 101.143,22.7284436 99.6830214,22.9837164 C97.6611714,23.3753307 95.3142786,22.9454664 93.9152429,21.3498779 C92.7395714,20.2193164 92.3569357,18.4885829 92.3198286,16.8973214 C92.5675929,16.4944186 93.1888143,16.8325 93.5966143,16.71875 C97.6725071,16.71875 101.7484,16.71875 105.824293,16.71875 C106.118943,14.3453286 105.57535,11.8261436 104.069829,9.9375 C103.708486,9.37838571 103.1244,8.97335857 102.565364,8.57142857 C101.089993,7.52126214 99.1839786,7.07725714 97.3867929,7.1875 Z M98.3242929,9.41964286 C100.067279,9.52410071 101.753336,10.5016207 102.561886,12.0523486 C102.945629,12.8788321 103.171443,13.7944771 103.190364,14.7098214 C99.5742929,14.7098214 95.9582214,14.7098214 92.34215,14.7098214 C92.51175,13.4261857 92.81775,12.0450457 93.7707214,11.1160714 C93.9413214,10.82233 94.4160357,10.5342736 94.6931571,10.2555786 C95.7556143,9.56324214 97.0701071,9.33135643 98.3242929,9.41964286 Z" id="path3307"></path>
                        </g>
                        <path d="M31.6667571,0.643581564 L6.33401764,0.643581564 C2.85125407,0.643581564 -4.04285714e-06,3.493724 -4.04285714e-06,6.97760329 L-4.04285714e-06,32.3103429 C-4.04285714e-06,35.7925486 2.85125407,38.6421329 6.33401764,38.6421329 L31.6667571,38.6421329 C35.1495207,38.6421329 38.0007793,35.7925486 38.0007793,32.3103429 L38.0007793,6.97760329 C38.0007793,3.493724 35.1495207,0.643581564 31.6667571,0.643581564 L31.6667571,0.643581564 Z M31.0910386,29.7212821 C31.0910386,30.8280907 30.184505,31.731835 29.0765807,31.731835 L8.92252071,31.731835 C7.81515429,31.731835 6.90862071,30.8280907 6.90862071,29.7212821 L6.90862071,9.56778 C6.90862071,8.46041357 7.81515429,7.55388 8.92252071,7.55388 L29.0765807,7.55388 C30.184505,7.55388 31.0910386,8.46041357 31.0910386,9.56778 L31.0910386,29.7212821 Z M24.1835293,23.6728886 C24.1835293,24.3082993 23.6652714,24.8248836 23.0332079,24.8248836 L14.9731457,24.8248836 C14.3394086,24.8248836 13.8228243,24.3082993 13.8228243,23.6728886 L13.8228243,15.6133843 C13.8228243,14.980205 14.3394086,14.4625043 14.9731457,14.4625043 L23.0332079,14.4625043 C23.6652714,14.4625043 24.1835293,14.980205 24.1835293,15.6133843 L24.1835293,23.6728886 Z" id="path3010" fill="#C9C9C9"></path>
                    </g>
                </g>
            </g>
        </g>
    </g>
</svg>